<svg id="Layer_1" data-name="Layer 1" xmlns="http://www.w3.org/2000/svg" viewBox="0 0 416.4 265.1"><title>AR thkel</title><path d="M200.7,392.2l.7,1.4v92.3h15.7q1.5.3,1.5,1.5v19.4a1.3,1.3,0,0,1-1.5,1.5H199.2c-4.6,8.5-8.1,14-10.4,16.3q-16.8,20.9-43.2,20.9-37,0-52.8-38a70,70,0,0,1-3-20.1V465.8c0-9.1,7.2-17.6,21.6-25.3l.7,1.5v46.9c0,16.8,8.9,27.9,26.8,33.5a39.5,39.5,0,0,0,7.5.7c15.5,0,26.1-8.9,32-26.7a40.3,40.3,0,0,0,.7-7.5V417.5c0-9.2,7.2-17.7,21.6-25.3" transform="translate(-89.8 -288.3)" fill="#010101"/><path d="M271,434.4l.8,1.5v29.2a47,47,0,0,1-4.5,20.8h18.2q1.5.3,1.5,1.5v19.4a1.3,1.3,0,0,1-1.5,1.5H220c-1,0-1.4-.5-1.4-1.5V487.4c.1-1,.6-1.5,1.4-1.5h11.6c11.9-2.2,17.8-8.2,17.8-17.8v-8.4c0-9.2,7.2-17.6,21.6-25.3" transform="translate(-89.8 -288.3)" fill="#010101"/><path d="M343.6,416.7q30.4,0,43.2,34.3a67.7,67.7,0,0,1,1.5,11.9c0,6.2-2,13.9-6,23h25.3q1.5.3,1.5,1.5v19.4a1.3,1.3,0,0,1-1.5,1.5H281.1a1.3,1.3,0,0,1-1.5-1.5V487.4q.1-1.5,1.5-1.5h23v-.7a51.4,51.4,0,0,1-5.9-23.1q0-31.7,34.2-43.9a49.5,49.5,0,0,1,11.2-1.5m-23.1,46.2c2,14.8,9.4,22.3,22.3,22.3h.8c13.1,0,20.6-7.7,22.3-23.1-2-14.9-9.4-22.3-22.3-22.3h-3c-10,0-16.7,6.9-20.1,20.8Z" transform="translate(-89.8 -288.3)" fill="#010101"/><path d="M473.3,416.7l.7,1.5v46.9c0,21.8-10.9,36-32.7,42.4a93.5,93.5,0,0,1-10.4.8h-4.5a1.3,1.3,0,0,1-1.5-1.5V487.4q.2-1.5,1.5-1.5h7.4c11.9-2.2,17.9-8.2,17.9-17.8V442c0-9.2,7.2-17.6,21.6-25.3" transform="translate(-89.8 -288.3)" fill="#ffc415"/><path d="M459.7,386.7a18,18,0,1,1-18-18,18,18,0,0,1,18,18" transform="translate(-89.8 -288.3)" fill="#ffc415"/><path d="M482.9,346.1a18,18,0,1,1-18-18,17.9,17.9,0,0,1,18,18" transform="translate(-89.8 -288.3)" fill="#ffc415"/><path d="M504.3,386.7a18,18,0,1,1-17.9-18,18,18,0,0,1,17.9,18" transform="translate(-89.8 -288.3)" fill="#ffc415"/><polygon points="135.5 237.4 118.2 265.1 167.3 265.1 185.4 237.4 135.5 237.4" fill="#ffc415"/><polygon points="233.9 87.1 216.6 114.8 265.8 114.8 283.9 87.1 233.9 87.1" fill="#ffc415"/><polygon points="329.4 15.3 319.5 35.1 406 19.9 416.4 0 329.4 15.3" fill="#ffc415"/></svg>